# Blender v2.83.2 OBJ File: 'surfaceLEVELDESIGNm1.blend'
# www.blender.org
mtllib levelp2.mtl
o Plane.008_Plane.012
v -1.000000 0.000000 3.462557
v 1.000000 0.000000 3.462557
v -1.000000 0.000000 1.260746
v 1.000000 0.000000 1.260746
v -1.000000 0.255263 1.260746
v -1.000000 0.255263 3.462557
v 1.000000 0.255263 3.462557
v 1.000000 0.255263 1.260746
vt 0.191251 0.383032
vt 0.169739 0.381169
vt 0.182531 0.233510
vt 0.204043 0.235374
vt 0.290115 0.297535
vt 0.261169 0.823562
vt 0.152688 0.812078
vt 0.224683 0.288070
vt 0.163586 0.190333
vt 0.356542 0.173318
vt 0.074780 0.800744
vt 0.356542 0.826682
vt 0.255395 0.229437
vt 0.239189 0.262816
vt 0.223124 0.261198
vn 0.0000 -1.0000 0.0000
vn 0.0000 1.0000 0.0000
vn -1.0000 0.0000 0.0000
vn 0.0000 0.0000 -1.0000
vn 0.0000 0.0000 1.0000
vn 1.0000 0.0000 0.0000
usemtl Material.006
s off
f 1/1/1 3/2/1 4/3/1 2/4/1
f 6/5/2 7/6/2 8/7/2 5/8/2
f 3/9/3 1/10/3 6/5/3 5/8/3
f 4/11/4 3/9/4 5/8/4 8/7/4
f 1/10/5 2/12/5 7/6/5 6/5/5
f 2/4/6 4/13/6 8/14/6 7/15/6
o Plane.001_Plane.013
v -1.000000 0.000000 0.974476
v 1.000000 0.000000 0.974476
v -1.000000 0.000000 -0.074187
v 1.000000 0.000000 -0.074187
v -1.000000 0.255263 -0.074187
v -1.000000 0.255263 0.974476
v 1.000000 0.255263 0.974476
v 1.000000 0.255263 -0.074187
vt 0.191251 0.383032
vt 0.169739 0.381169
vt 0.182531 0.233510
vt 0.204043 0.235374
vt 0.290115 0.297535
vt 0.261169 0.823562
vt 0.152688 0.812078
vt 0.224683 0.288070
vt 0.163586 0.190333
vt 0.356542 0.173318
vt 0.074780 0.800744
vt 0.356542 0.826682
vt 0.255395 0.229437
vt 0.239189 0.262816
vt 0.223124 0.261198
vn 0.0000 -1.0000 0.0000
vn 0.0000 1.0000 0.0000
vn -1.0000 0.0000 0.0000
vn 0.0000 0.0000 -1.0000
vn 0.0000 0.0000 1.0000
vn 1.0000 0.0000 0.0000
usemtl Material.006
s off
f 9/16/7 11/17/7 12/18/7 10/19/7
f 14/20/8 15/21/8 16/22/8 13/23/8
f 11/24/9 9/25/9 14/20/9 13/23/9
f 12/26/10 11/24/10 13/23/10 16/22/10
f 9/25/11 10/27/11 15/21/11 14/20/11
f 10/19/12 12/28/12 16/29/12 15/30/12
o Plane.002_Plane.014
v -1.000000 0.000000 -0.453344
v 1.000000 0.000000 -0.453344
v -1.000000 0.000000 -1.094713
v 1.000000 0.000000 -1.094713
v -1.000000 0.255263 -1.094713
v -1.000000 0.255263 -0.453344
v 1.000000 0.255263 -0.453344
v 1.000000 0.255263 -1.094713
vt 0.191251 0.383032
vt 0.169739 0.381169
vt 0.182531 0.233510
vt 0.204043 0.235374
vt 0.290115 0.297535
vt 0.261169 0.823562
vt 0.152688 0.812078
vt 0.224683 0.288070
vt 0.163586 0.190333
vt 0.356542 0.173318
vt 0.074780 0.800744
vt 0.356542 0.826682
vt 0.255395 0.229437
vt 0.239189 0.262816
vt 0.223124 0.261198
vn 0.0000 -1.0000 0.0000
vn 0.0000 1.0000 0.0000
vn -1.0000 0.0000 0.0000
vn 0.0000 0.0000 -1.0000
vn 0.0000 0.0000 1.0000
vn 1.0000 0.0000 0.0000
usemtl Material.006
s off
f 17/31/13 19/32/13 20/33/13 18/34/13
f 22/35/14 23/36/14 24/37/14 21/38/14
f 19/39/15 17/40/15 22/35/15 21/38/15
f 20/41/16 19/39/16 21/38/16 24/37/16
f 17/40/17 18/42/17 23/36/17 22/35/17
f 18/34/18 20/43/18 24/44/18 23/45/18
o Plane.003_Plane.015
v -1.000000 0.000000 -1.390281
v 1.000000 0.000000 -1.390281
v -1.000000 0.000000 -2.031650
v 1.000000 0.000000 -2.031650
v -1.000000 0.255263 -2.031650
v -1.000000 0.255263 -1.390281
v 1.000000 0.255263 -1.390281
v 1.000000 0.255263 -2.031650
vt 0.191251 0.383032
vt 0.169739 0.381169
vt 0.182531 0.233510
vt 0.204043 0.235374
vt 0.290115 0.297535
vt 0.261169 0.823562
vt 0.152688 0.812078
vt 0.224683 0.288070
vt 0.163586 0.190333
vt 0.356542 0.173318
vt 0.074780 0.800744
vt 0.356542 0.826682
vt 0.255395 0.229437
vt 0.239189 0.262816
vt 0.223124 0.261198
vn 0.0000 -1.0000 0.0000
vn 0.0000 1.0000 0.0000
vn -1.0000 0.0000 0.0000
vn 0.0000 0.0000 -1.0000
vn 0.0000 0.0000 1.0000
vn 1.0000 0.0000 0.0000
usemtl Material.006
s off
f 25/46/19 27/47/19 28/48/19 26/49/19
f 30/50/20 31/51/20 32/52/20 29/53/20
f 27/54/21 25/55/21 30/50/21 29/53/21
f 28/56/22 27/54/22 29/53/22 32/52/22
f 25/55/23 26/57/23 31/51/23 30/50/23
f 26/49/24 28/58/24 32/59/24 31/60/24
o Plane.004_Plane.016
v -1.000000 0.000000 -2.527069
v 1.000000 0.000000 -2.527069
v -1.000000 0.000000 -3.575732
v 1.000000 0.000000 -3.575732
v -1.000000 0.255263 -3.575732
v -1.000000 0.255263 -2.527069
v 1.000000 0.255263 -2.527069
v 1.000000 0.255263 -3.575732
vt 0.191251 0.383032
vt 0.169739 0.381169
vt 0.182531 0.233510
vt 0.204043 0.235374
vt 0.290115 0.297535
vt 0.261169 0.823562
vt 0.152688 0.812078
vt 0.224683 0.288070
vt 0.163586 0.190333
vt 0.356542 0.173318
vt 0.074780 0.800744
vt 0.356542 0.826682
vt 0.255395 0.229437
vt 0.239189 0.262816
vt 0.223124 0.261198
vn 0.0000 -1.0000 0.0000
vn 0.0000 1.0000 0.0000
vn -1.0000 0.0000 0.0000
vn 0.0000 0.0000 -1.0000
vn 0.0000 0.0000 1.0000
vn 1.0000 0.0000 0.0000
usemtl Material.006
s off
f 33/61/25 35/62/25 36/63/25 34/64/25
f 38/65/26 39/66/26 40/67/26 37/68/26
f 35/69/27 33/70/27 38/65/27 37/68/27
f 36/71/28 35/69/28 37/68/28 40/67/28
f 33/70/29 34/72/29 39/66/29 38/65/29
f 34/64/30 36/73/30 40/74/30 39/75/30
o Plane.005_Plane.017
v -1.000000 0.000000 -3.982245
v 1.000000 0.000000 -3.982245
v -1.000000 0.000000 -4.623615
v 1.000000 0.000000 -4.623615
v -1.000000 0.255263 -4.623615
v -1.000000 0.255263 -3.982245
v 1.000000 0.255263 -3.982245
v 1.000000 0.255263 -4.623615
vt 0.191251 0.383032
vt 0.169739 0.381169
vt 0.182531 0.233510
vt 0.204043 0.235374
vt 0.290115 0.297535
vt 0.261169 0.823562
vt 0.152688 0.812078
vt 0.224683 0.288070
vt 0.163586 0.190333
vt 0.356542 0.173318
vt 0.074780 0.800744
vt 0.356542 0.826682
vt 0.255395 0.229437
vt 0.239189 0.262816
vt 0.223124 0.261198
vn 0.0000 -1.0000 0.0000
vn 0.0000 1.0000 0.0000
vn -1.0000 0.0000 0.0000
vn 0.0000 0.0000 -1.0000
vn 0.0000 0.0000 1.0000
vn 1.0000 0.0000 0.0000
usemtl Material.006
s off
f 41/76/31 43/77/31 44/78/31 42/79/31
f 46/80/32 47/81/32 48/82/32 45/83/32
f 43/84/33 41/85/33 46/80/33 45/83/33
f 44/86/34 43/84/34 45/83/34 48/82/34
f 41/85/35 42/87/35 47/81/35 46/80/35
f 42/79/36 44/88/36 48/89/36 47/90/36
o Plane.006_Plane.018
v -1.000000 0.000000 -5.548451
v 1.000000 0.000000 -5.548451
v -1.000000 0.000000 -7.750263
v 1.000000 0.000000 -7.750263
v -1.000000 0.255263 -7.750263
v -1.000000 0.255263 -5.548451
v 1.000000 0.255263 -5.548451
v 1.000000 0.255263 -7.750263
vt 0.191251 0.383032
vt 0.169739 0.381169
vt 0.182531 0.233510
vt 0.204043 0.235374
vt 0.290115 0.297535
vt 0.261169 0.823562
vt 0.152688 0.812078
vt 0.224683 0.288070
vt 0.163586 0.190333
vt 0.356542 0.173318
vt 0.074780 0.800744
vt 0.356542 0.826682
vt 0.255395 0.229437
vt 0.239189 0.262816
vt 0.223124 0.261198
vn 0.0000 -1.0000 0.0000
vn 0.0000 1.0000 0.0000
vn -1.0000 0.0000 0.0000
vn 0.0000 0.0000 -1.0000
vn 0.0000 0.0000 1.0000
vn 1.0000 0.0000 0.0000
usemtl Material.006
s off
f 49/91/37 51/92/37 52/93/37 50/94/37
f 54/95/38 55/96/38 56/97/38 53/98/38
f 51/99/39 49/100/39 54/95/39 53/98/39
f 52/101/40 51/99/40 53/98/40 56/97/40
f 49/100/41 50/102/41 55/96/41 54/95/41
f 50/94/42 52/103/42 56/104/42 55/105/42
o Plane.007_Plane.019
v -1.000000 0.000000 -8.029814
v 1.000000 0.000000 -8.029814
v -1.000000 0.000000 -8.671183
v 1.000000 0.000000 -8.671183
v -1.000000 0.255263 -8.671183
v -1.000000 0.255263 -8.029814
v 1.000000 0.255263 -8.029814
v 1.000000 0.255263 -8.671183
vt 0.191251 0.383032
vt 0.169739 0.381169
vt 0.182531 0.233510
vt 0.204043 0.235374
vt 0.290115 0.297535
vt 0.261169 0.823562
vt 0.152688 0.812078
vt 0.224683 0.288070
vt 0.163586 0.190333
vt 0.356542 0.173318
vt 0.074780 0.800744
vt 0.356542 0.826682
vt 0.255395 0.229437
vt 0.239189 0.262816
vt 0.223124 0.261198
vn 0.0000 -1.0000 0.0000
vn 0.0000 1.0000 0.0000
vn -1.0000 0.0000 0.0000
vn 0.0000 0.0000 -1.0000
vn 0.0000 0.0000 1.0000
vn 1.0000 0.0000 0.0000
usemtl Material.006
s off
f 57/106/43 59/107/43 60/108/43 58/109/43
f 62/110/44 63/111/44 64/112/44 61/113/44
f 59/114/45 57/115/45 62/110/45 61/113/45
f 60/116/46 59/114/46 61/113/46 64/112/46
f 57/115/47 58/117/47 63/111/47 62/110/47
f 58/109/48 60/118/48 64/119/48 63/120/48
o Plane.009_Plane.020
v -1.000000 0.000000 -9.410890
v 1.000000 0.000000 -9.410890
v -1.000000 0.000000 -10.459552
v 1.000000 0.000000 -10.459552
v -1.000000 0.255263 -10.459552
v -1.000000 0.255263 -9.410890
v 1.000000 0.255263 -9.410890
v 1.000000 0.255263 -10.459552
vt 0.191251 0.383032
vt 0.169739 0.381169
vt 0.182531 0.233510
vt 0.204043 0.235374
vt 0.290115 0.297535
vt 0.261169 0.823562
vt 0.152688 0.812078
vt 0.224683 0.288070
vt 0.163586 0.190333
vt 0.356542 0.173318
vt 0.074780 0.800744
vt 0.356542 0.826682
vt 0.255395 0.229437
vt 0.239189 0.262816
vt 0.223124 0.261198
vn 0.0000 -1.0000 0.0000
vn 0.0000 1.0000 0.0000
vn -1.0000 0.0000 0.0000
vn 0.0000 0.0000 -1.0000
vn 0.0000 0.0000 1.0000
vn 1.0000 0.0000 0.0000
usemtl Material.006
s off
f 65/121/49 67/122/49 68/123/49 66/124/49
f 70/125/50 71/126/50 72/127/50 69/128/50
f 67/129/51 65/130/51 70/125/51 69/128/51
f 68/131/52 67/129/52 69/128/52 72/127/52
f 65/130/53 66/132/53 71/126/53 70/125/53
f 66/124/54 68/133/54 72/134/54 71/135/54
